<svg xmlns="http://www.w3.org/2000/svg" xmlns:xlink="http://www.w3.org/1999/xlink" width="2000" zoomAndPan="magnify" viewBox="0 0 1500 749.999995" height="1000" preserveAspectRatio="xMidYMid meet" version="1.0"><defs><g/><clipPath id="c67e393f43"><path d="M 23 12.949219 L 736.328125 12.949219 L 736.328125 726 L 23 726 Z M 23 12.949219 " clip-rule="nonzero"/></clipPath><clipPath id="2984bcf2a0"><rect x="0" width="697" y="0" height="712"/></clipPath></defs><g clip-path="url(#c67e393f43)"><path fill="#1800ad" d="M 461.03125 12.949219 C 309.148438 12.949219 186.027344 136.074219 186.027344 287.941406 C 186.027344 350.230469 206.746094 407.671875 241.660156 453.773438 L 227.835938 467.597656 C 214.285156 459.003906 196.128906 460.597656 184.300781 472.414062 L 33.773438 622.96875 C 20.078125 636.664062 20.078125 658.867188 33.773438 672.5625 L 76.425781 715.214844 C 90.121094 728.90625 112.320312 728.90625 126.015625 715.214844 L 276.558594 564.671875 C 288.386719 552.84375 289.96875 534.703125 281.375 521.136719 L 295.199219 507.3125 C 341.300781 542.226562 398.742188 562.945312 461.03125 562.945312 C 612.914062 562.945312 736.023438 439.820312 736.023438 287.953125 C 736.023438 136.085938 612.898438 12.949219 461.03125 12.949219 Z M 625.253906 452.164062 C 581.390625 496.027344 523.0625 520.179688 461.03125 520.179688 C 399 520.179688 340.671875 496.027344 296.808594 452.164062 C 252.945312 408.300781 228.792969 349.972656 228.792969 287.941406 C 228.792969 225.90625 252.945312 167.582031 296.808594 123.71875 C 340.671875 79.855469 399 55.699219 461.03125 55.699219 C 523.0625 55.699219 581.390625 79.855469 625.253906 123.71875 C 669.117188 167.582031 693.273438 225.90625 693.273438 287.941406 C 693.273438 349.972656 669.117188 408.300781 625.253906 452.164062 Z M 625.253906 452.164062 " fill-opacity="1" fill-rule="nonzero"/></g><path fill="#1800ad" d="M 491.484375 109.46875 C 491.484375 110.210938 491.449219 110.957031 491.375 111.699219 C 491.300781 112.441406 491.191406 113.175781 491.046875 113.90625 C 490.902344 114.636719 490.722656 115.359375 490.503906 116.074219 C 490.289062 116.785156 490.039062 117.488281 489.753906 118.175781 C 489.46875 118.863281 489.148438 119.539062 488.796875 120.195312 C 488.445312 120.851562 488.0625 121.492188 487.648438 122.109375 C 487.234375 122.730469 486.792969 123.328125 486.320312 123.90625 C 485.847656 124.480469 485.347656 125.03125 484.820312 125.558594 C 484.292969 126.085938 483.742188 126.585938 483.164062 127.058594 C 482.589844 127.53125 481.992188 127.976562 481.371094 128.390625 C 480.75 128.804688 480.113281 129.1875 479.453125 129.539062 C 478.796875 129.890625 478.125 130.207031 477.4375 130.492188 C 476.746094 130.777344 476.046875 131.027344 475.332031 131.246094 C 474.621094 131.460938 473.898438 131.640625 473.167969 131.789062 C 472.4375 131.933594 471.699219 132.042969 470.957031 132.117188 C 470.214844 132.1875 469.472656 132.226562 468.726562 132.226562 C 467.980469 132.226562 467.238281 132.1875 466.496094 132.117188 C 465.753906 132.042969 465.019531 131.933594 464.285156 131.789062 C 463.554688 131.640625 462.832031 131.460938 462.121094 131.246094 C 461.40625 131.027344 460.707031 130.777344 460.019531 130.492188 C 459.328125 130.207031 458.65625 129.890625 458 129.539062 C 457.339844 129.1875 456.703125 128.804688 456.082031 128.390625 C 455.464844 127.976562 454.867188 127.53125 454.289062 127.058594 C 453.714844 126.585938 453.160156 126.085938 452.632812 125.558594 C 452.109375 125.03125 451.609375 124.480469 451.132812 123.90625 C 450.660156 123.328125 450.21875 122.730469 449.804688 122.109375 C 449.390625 121.492188 449.007812 120.851562 448.65625 120.195312 C 448.304688 119.539062 447.988281 118.863281 447.703125 118.175781 C 447.417969 117.488281 447.164062 116.785156 446.949219 116.074219 C 446.734375 115.359375 446.550781 114.636719 446.40625 113.90625 C 446.261719 113.175781 446.152344 112.441406 446.078125 111.699219 C 446.003906 110.957031 445.96875 110.210938 445.96875 109.46875 C 445.96875 108.722656 446.003906 107.976562 446.078125 107.238281 C 446.152344 106.496094 446.261719 105.757812 446.40625 105.027344 C 446.550781 104.296875 446.734375 103.574219 446.949219 102.859375 C 447.164062 102.148438 447.417969 101.445312 447.703125 100.757812 C 447.988281 100.070312 448.304688 99.394531 448.65625 98.738281 C 449.007812 98.082031 449.390625 97.441406 449.804688 96.824219 C 450.21875 96.203125 450.660156 95.605469 451.132812 95.03125 C 451.609375 94.453125 452.109375 93.902344 452.632812 93.375 C 453.160156 92.847656 453.714844 92.347656 454.289062 91.875 C 454.867188 91.402344 455.464844 90.957031 456.082031 90.542969 C 456.703125 90.128906 457.339844 89.746094 458 89.394531 C 458.65625 89.042969 459.328125 88.726562 460.019531 88.441406 C 460.707031 88.15625 461.40625 87.90625 462.121094 87.6875 C 462.835938 87.472656 463.554688 87.292969 464.289062 87.144531 C 465.019531 87 465.753906 86.890625 466.496094 86.820312 C 467.238281 86.746094 467.980469 86.710938 468.726562 86.707031 C 469.472656 86.710938 470.214844 86.746094 470.957031 86.820312 C 471.699219 86.890625 472.4375 87 473.167969 87.144531 C 473.898438 87.292969 474.621094 87.472656 475.332031 87.6875 C 476.046875 87.90625 476.746094 88.15625 477.4375 88.441406 C 478.125 88.726562 478.796875 89.042969 479.453125 89.394531 C 480.113281 89.746094 480.75 90.128906 481.371094 90.542969 C 481.992188 90.957031 482.589844 91.402344 483.164062 91.875 C 483.742188 92.347656 484.292969 92.847656 484.820312 93.375 C 485.347656 93.902344 485.847656 94.453125 486.320312 95.03125 C 486.792969 95.605469 487.234375 96.203125 487.648438 96.824219 C 488.0625 97.441406 488.445312 98.082031 488.796875 98.738281 C 489.148438 99.394531 489.46875 100.070312 489.753906 100.757812 C 490.039062 101.445312 490.289062 102.148438 490.503906 102.859375 C 490.722656 103.574219 490.902344 104.296875 491.046875 105.027344 C 491.191406 105.757812 491.300781 106.496094 491.375 107.238281 C 491.449219 107.976562 491.484375 108.722656 491.484375 109.46875 Z M 491.484375 109.46875 " fill-opacity="1" fill-rule="nonzero"/><path fill="#1800ad" d="M 409.472656 96.769531 C 406.894531 97.296875 345.644531 110.480469 301.667969 166.167969 C 293.617188 176.359375 295.355469 191.152344 305.558594 199.1875 C 309.875 202.59375 315.007812 204.246094 320.109375 204.246094 C 327.0625 204.246094 333.945312 201.183594 338.578125 195.296875 C 371.4375 153.671875 418.136719 143 419.0625 142.785156 C 431.71875 140.121094 439.855469 127.707031 437.246094 115.023438 C 434.625 102.3125 422.183594 94.121094 409.472656 96.753906 Z M 409.472656 96.769531 " fill-opacity="1" fill-rule="nonzero"/><g transform="matrix(1, 0, 0, 1, 731, -0.000000000000042435)"><g clip-path="url(#2984bcf2a0)"><g fill="#1800ad" fill-opacity="1"><g transform="translate(1.276308, 556.939716)"><g><path d="M 261.78125 -135.515625 C 261.78125 -161.796875 252.742188 -184.789062 234.671875 -204.5 C 216.191406 -224.207031 193.40625 -234.0625 166.3125 -234.0625 C 139.207031 -234.0625 116.617188 -224.207031 98.546875 -204.5 C 80.066406 -184.789062 70.828125 -161.796875 70.828125 -135.515625 C 70.828125 -109.234375 80.066406 -86.234375 98.546875 -66.515625 C 116.617188 -46.804688 139.207031 -36.953125 166.3125 -36.953125 C 193.40625 -36.953125 216.191406 -46.804688 234.671875 -66.515625 C 252.742188 -86.234375 261.78125 -109.234375 261.78125 -135.515625 Z M 304.890625 0 L 261.78125 0 L 261.78125 -46.203125 C 259.3125 -42.910156 256.847656 -39.828125 254.390625 -36.953125 C 228.515625 -8.210938 196.894531 6.15625 159.53125 6.15625 C 122.164062 6.15625 90.753906 -8.210938 65.296875 -36.953125 C 40.242188 -64.878906 27.71875 -97.734375 27.71875 -135.515625 C 27.71875 -173.285156 40.242188 -206.132812 65.296875 -234.0625 C 90.753906 -262.800781 122.164062 -277.171875 159.53125 -277.171875 C 196.894531 -277.171875 228.515625 -262.800781 254.390625 -234.0625 C 256.847656 -231.1875 259.3125 -228.109375 261.78125 -224.828125 L 261.78125 -461.96875 L 304.890625 -461.96875 Z M 304.890625 0 "/></g></g></g><g fill="#1800ad" fill-opacity="1"><g transform="translate(352.364599, 556.939716)"><g><path d="M 89.921875 -364.640625 C 95.265625 -359.304688 97.9375 -352.941406 97.9375 -345.546875 C 97.9375 -337.742188 95.265625 -331.175781 89.921875 -325.84375 C 84.585938 -320.5 78.222656 -317.828125 70.828125 -317.828125 C 63.023438 -317.828125 56.457031 -320.5 51.125 -325.84375 C 45.78125 -331.175781 43.109375 -337.742188 43.109375 -345.546875 C 43.109375 -352.941406 45.78125 -359.304688 51.125 -364.640625 C 56.457031 -369.984375 63.023438 -372.65625 70.828125 -372.65625 C 78.222656 -372.65625 84.585938 -369.984375 89.921875 -364.640625 Z M 92.390625 0 L 49.28125 0 L 49.28125 -271.015625 L 92.390625 -271.015625 Z M 92.390625 0 "/></g></g></g><g fill="#1800ad" fill-opacity="1"><g transform="translate(493.415872, 556.939716)"><g><path d="M 12.3125 -230.984375 L 12.3125 -271.015625 L 80.078125 -271.015625 L 80.078125 -376.34375 L 123.1875 -376.34375 L 123.1875 -271.015625 L 190.328125 -271.015625 L 190.328125 -230.984375 L 123.1875 -230.984375 L 123.1875 0 L 80.078125 0 L 80.078125 -230.984375 Z M 12.3125 -230.984375 "/></g></g></g></g></g></svg>